# xmcd CD database file
#
# Track frame offsets:
#	150
#	11922
#	23131
#	35968
#	46952
#	58266
#	70931
#	81806
#	93039
#	103539
#	116196
#	127206
#	138456
#	150350
#	161225
#	172630
#	184047
#	195813
#	206724
#	217684
#
# Disc length: 3064 seconds
#
# Revision: 0
# Processed by: cddbd v1.5.2PL0 Copyright (c) Steve Scherf et al.
# Submitted via: CDex 1.70beta2
#
DISCID=110bf614
DTITLE=Jim Reeves - The Country Music Gentleman CD 1
DYEAR=1900
DGENRE=Country
TTITLE0=Mexican Joe
TTITLE1=Wagon Load Of Love
TTITLE2=Butterfly Love
TTITLE3=El Rancho Del Rio
TTITLE4=I's Hard To Love Just One
TTITLE5=Bimbo
TTITLE6=Gypsy Hear
TTITLE7=I Love You
TTITLE8=Beatin' On The Ding Dong
TTITLE9=Echo Bonita
TTITLE10=Then I'll Stop Loving You
TTITLE11=Penny Candy
TTITLE12=The Widler Your Heart Beats
TTITLE13=Red Eyed And Rowdy
TTITLE14=Yonder Comes A Sucker
TTITLE15=Give Me One More Kiss
TTITLE16=How Many
TTITLE17=Tahiti
TTITLE18=I'm Hurtin' Inside
TTITLE19=Drinking Tequila
EXTD=
EXTT0=
EXTT1=
EXTT2=
EXTT3=
EXTT4=
EXTT5=
EXTT6=
EXTT7=
EXTT8=
EXTT9=
EXTT10=
EXTT11=
EXTT12=
EXTT13=
EXTT14=
EXTT15=
EXTT16=
EXTT17=
EXTT18=
EXTT19=
PLAYORDER=
